/* XPM */
static char *collectible31723131101[] = {
/* columns rows colors chars-per-pixel */
"32 32 102 2 ",
"   c None",
".  c black",
"X  c #060F03",
"o  c #160101",
"O  c #170202",
"+  c #160402",
"@  c #180101",
"#  c #190101",
"$  c #180202",
"%  c #190202",
"&  c #1A0202",
"*  c #160B07",
"=  c #190E0A",
"-  c #031003",
";  c #031103",
":  c #081F06",
">  c #2F0102",
",  c #2E0303",
"<  c #2F0303",
"1  c #2F0B08",
"2  c #320102",
"3  c #300303",
"4  c #310303",
"5  c #330203",
"6  c #320303",
"7  c #300B08",
"8  c #2C1717",
"9  c #312522",
"0  c #4A2623",
"q  c #BB0D0D",
"w  c #BB0E0D",
"e  c #BD0D0D",
"r  c #BE0D0D",
"t  c #A91B0E",
"y  c #CF0E0E",
"u  c #D10E0E",
"i  c #D20E0E",
"p  c #D40D0E",
"a  c #D70D0E",
"s  c #D40E0E",
"d  c #D50E0E",
"f  c #D50F0F",
"g  c #D60F0F",
"h  c #D70F0F",
"j  c #D80F0F",
"k  c #D0110F",
"l  c #CF1512",
"z  c #C31C10",
"x  c #C41D10",
"c  c #D31111",
"v  c #D51111",
"b  c #D31412",
"n  c #D71F12",
"m  c #D91C11",
"M  c #EF0D0F",
"N  c #EC0E0E",
"B  c #EF0F0F",
"V  c #EB0F10",
"C  c #E61010",
"Z  c #E91010",
"A  c #EB1010",
"S  c #EC1010",
"D  c #ED1010",
"F  c #EE1010",
"G  c #EF1010",
"H  c #EB1B16",
"J  c #EF1815",
"K  c #F01010",
"L  c #F11010",
"P  c #C02C13",
"I  c #C12D13",
"U  c #D52012",
"Y  c #D72012",
"T  c #D62315",
"R  c #D62415",
"E  c #D82717",
"W  c #D92717",
"Q  c #D42223",
"!  c #ED2929",
"~  c #F12929",
"^  c #D4422F",
"/  c #CF4A33",
"(  c #CF4C35",
")  c #D54330",
"_  c #D44631",
"`  c #D04C35",
"'  c #138219",
"]  c #148119",
"[  c #178F1C",
"{  c #15901C",
"}  c #17901C",
"|  c #2B831B",
" . c #2D821B",
".. c #2D831B",
"X. c #2B841B",
"o. c #32911E",
"O. c #31921E",
"+. c #32921E",
"@. c #46821C",
"#. c #49831C",
"$. c #CAB4B4",
"%. c #E4B6B6",
/* pixels */
"                                                                ",
"                                                                ",
"                                                                ",
"                          . . . .                               ",
"                          % % % %                               ",
"                      . % e d d e o .                           ",
"                      o 3 v K D v 6 o                           ",
"                  . % e v N D D N v e % .                       ",
"                  . % d K A d i A K d % .                       ",
"                  . % i K d < < d D i % .                       ",
"                  % < d D d < < d D d 3 %                       ",
"              . % e j A A A d d A D D j e % .                   ",
"              . % i d d A A D D A A d v i % .                   ",
"              . % q < < d D D A D d < 6 e & .                   ",
"              % 6 e 6 < d D A D D i < < e 3 %                   ",
"          . % e j C d d A A D A D N d i C d e % .               ",
"          . % d K D K K D D D D D D K D M M i % .               ",
"          . % i j i i d C d i i d C d v ! ~ b o .               ",
"          % 5 e 3 % o 3 e 3 % % 6 e 6 8 $.%.Q 6 %               ",
"      . + t x k 1 * * 7 e & . . % q 1 = 9 0 b z t o .           ",
"      . ; ..#.R ) ` ` _ l % . . % b _ ( / ^ R #. .; .           ",
"      . - ] ..P E E H J f 3 % o 4 i J H E E P X.] ; .           ",
"          - : ..O.@.m M A d d d d V M m @.O...: ;               ",
"          . - ] { | P n Y Y m Y Y Y n P ..{ ] - .               ",
"              - ; : ..o.o.o.o.o.o.O.O...: ; ;                   ",
"              . . ; ] [ [ [ [ [ [ [ } ] X . .                   ",
"                    ; ; ; ; ; ; ; ; ; ;                         ",
"                    . . . . . . . . . .                         ",
"                                                                ",
"                                                                ",
"                                                                ",
"                                                                "
};
