/* XPM */
static char *collectible21723131044[] = {
/* columns rows colors chars-per-pixel */
"32 32 79 1 ",
"  c None",
". c black",
"X c #060F03",
"o c #160101",
"O c #170202",
"+ c #160402",
"@ c #190101",
"# c #180202",
"$ c #190202",
"% c #1A0202",
"& c #160B07",
"* c #031003",
"= c #031103",
"- c #081F06",
"; c #2E0303",
": c #2F0303",
"> c #2F0B08",
", c #300303",
"< c #310303",
"1 c #330203",
"2 c #320303",
"3 c #BB0D0D",
"4 c #BD0D0D",
"5 c #BE0D0D",
"6 c #A91B0E",
"7 c #CF0E0E",
"8 c #D10E0E",
"9 c #D20E0E",
"0 c #D40E0E",
"q c #D50E0E",
"w c #D60E0E",
"e c #D60F0F",
"r c #D70F0F",
"t c #D80F0F",
"y c #D0110F",
"u c #D6100F",
"i c #C41D10",
"p c #D71F12",
"a c #D91C11",
"s c #EF0D0F",
"d c #EE0F10",
"f c #EF0F10",
"g c #E61010",
"h c #E91010",
"j c #EB1010",
"k c #EC1010",
"l c #ED1010",
"z c #EC1111",
"x c #EE1010",
"c c #EF1010",
"v c #EA1714",
"b c #EB1B16",
"n c #ED1815",
"m c #F01010",
"M c #F11010",
"N c #C02C13",
"B c #C12D13",
"V c #D52012",
"C c #D62415",
"Z c #D82717",
"A c #D92717",
"S c #CF4C35",
"D c #D54330",
"F c #D24631",
"G c #D04C35",
"H c #138219",
"J c #148119",
"K c #178F1C",
"L c #15901C",
"P c #17901C",
"I c #2B831B",
"U c #2D821B",
"Y c #2D831B",
"T c #2B841B",
"R c #32911E",
"E c #31921E",
"W c #32921E",
"Q c #46821C",
"! c #49831C",
/* pixels */
"                                ",
"                                ",
"                                ",
"             ....               ",
"             $$$$               ",
"           .$4qq4O.             ",
"           O,umle:O             ",
"         .$4ejllje4$.           ",
"         .$qmjq9jmq$.           ",
"         .$9mq::ql9O.           ",
"         $:qlq::qlq2$           ",
"       .$4tjjjqqjljt4$.         ",
"       .$9qqjjllljqe9$.         ",
"       .$3::qlljlq::4$.         ",
"       $242:qljll9::42$         ",
"     .$4tgqqjjljljqqge4$.       ",
"     .$9mllsljljjjlldmq$.       ",
"     .$9t99qjlllljq99q7$.       ",
"     $242OO:9j9qjq2OO242$       ",
"   .+6iy>&&>uq::qq>&&>yi6O.     ",
"   .*U!CDGSFn9::qnFSSFC!U*.     ",
"   .*JYBAAbnjgqqjjnnZZBTJ*.     ",
"     *-UEQasddMMlddaQEU-*       ",
"     .*JLUBVVppVVVpNIKJ*.       ",
"       **-YWWWWWWWWY-**         ",
"       ..*JPPPPPPPPH*..         ",
"          **********            ",
"          ..........            ",
"                                ",
"                                ",
"                                ",
"                                "
};
