/* XPM */
static char *collectible11723131002[] = {
/* columns rows colors chars-per-pixel */
"32 32 129 2 ",
"   c None",
".  c black",
"X  c #060F03",
"o  c #160000",
"O  c #170000",
"+  c #170202",
"@  c #160402",
"#  c #180000",
"$  c #190000",
"%  c #180101",
"&  c #190101",
"*  c #180202",
"=  c #190202",
"-  c #1A0202",
";  c #1B0202",
":  c #1B0E0A",
">  c #031003",
",  c #031103",
"<  c #081F06",
"1  c #151818",
"2  c #191C1C",
"3  c #2D0101",
"4  c #2F0202",
"5  c #2E0303",
"6  c #2F0303",
"7  c #320102",
"8  c #310202",
"9  c #300303",
"0  c #310303",
"q  c #320202",
"w  c #340203",
"e  c #340404",
"r  c #300B08",
"t  c #311A1A",
"y  c #321A1A",
"u  c #312420",
"i  c #492421",
"p  c #4A2421",
"a  c #BE0B0B",
"s  c #B80C0C",
"d  c #BB0D0D",
"f  c #BD0D0D",
"g  c #BE0D0D",
"h  c #A91B0E",
"j  c #BE1010",
"k  c #C00D0D",
"l  c #D10E0E",
"z  c #D20E0E",
"x  c #D40E0E",
"c  c #D50E0E",
"v  c #D60E0E",
"b  c #D60F0F",
"n  c #D80F0F",
"m  c #D0110F",
"M  c #D7100F",
"N  c #C31C10",
"B  c #C41D10",
"V  c #D01111",
"C  c #D31412",
"Z  c #DA1312",
"A  c #D71F12",
"S  c #D91C11",
"D  c #E90E0E",
"F  c #EF0D0F",
"G  c #EC0E0E",
"H  c #EE0F10",
"J  c #EF0F10",
"K  c #E61010",
"L  c #E91010",
"P  c #EB1010",
"I  c #E91313",
"U  c #EC1010",
"Y  c #ED1010",
"T  c #EC1111",
"R  c #EE1010",
"E  c #EF1010",
"W  c #EA1614",
"Q  c #EA1714",
"!  c #EB1B16",
"~  c #ED1815",
"^  c #F01010",
"/  c #C02C13",
"(  c #C12D13",
")  c #D52012",
"_  c #D62315",
"`  c #D62415",
"'  c #D82717",
"]  c #D92717",
"[  c #D42525",
"{  c #D42626",
"}  c #D62626",
"|  c #D72626",
" . c #D92626",
".. c #D42929",
"X. c #E52727",
"o. c #EB2727",
"O. c #EE2727",
"+. c #EE2A2A",
"@. c #D4422F",
"#. c #D1442F",
"$. c #CD4B33",
"%. c #CF4A33",
"&. c #CF4C35",
"*. c #D54330",
"=. c #D24631",
"-. c #D04B35",
";. c #138219",
":. c #148119",
">. c #178F1C",
",. c #15901C",
"<. c #17901C",
"1. c #2B831B",
"2. c #2D821B",
"3. c #2D831B",
"4. c #2B841B",
"5. c #32911E",
"6. c #31921E",
"7. c #32921E",
"8. c #46821C",
"9. c #49831C",
"0. c #C9CBCC",
"q. c #E4CDCD",
"w. c #E6CDCE",
"e. c #E5CECE",
"r. c #E6CECE",
"t. c #FED0D0",
"y. c #FFD0D0",
"u. c #E5E8E8",
"i. c #FFEAEA",
/* pixels */
"                                                                ",
"                                                                ",
"                                                                ",
"                          . . . .                               ",
"                          = = = =                               ",
"                      . = g c c g + .                           ",
"                      + 9 c ^ ^ C 0 =                           ",
"                  . = g c P T T D c g = .                       ",
"                  . = c ^ D c c D ^ c = .                       ",
"                  . = z T c 9 6 c T z = .                       ",
"                  = 6 c ^ c 6 6 c ^ c 9 =                       ",
"              . = g n P T D c c P T P n g = .                   ",
"              . = z n c D T T ^ T P c Z z = .                   ",
"              . = d 6 6 c T T G G c 6 6 g = .                   ",
"              = e k 6 6 c T T T T c 6 6 a 9 =                   ",
"          . = d k V [ [ P T G T H K g g X. .j = .               ",
"          . = g 9 t w.t.O.G G T T c 9 y w.y.[ = .               ",
"          . = s = 2 u.i.+.G T T G z = 2 u.i...= .               ",
"          = w g = 1 0.w.O.D c c U z + 1 0.w.[ 9 =               ",
"      . @ h B m r : u i Z c 5 5 c c r : u p C B h + .           ",
"      . > 3.9.` @.-.%.#.W c 5 5 c Q =.&.%.@.` 9.3.> .           ",
"      . > ;.3./ ' ' ! ~ P P c c P T ~ ! ' ' / 4.:.> .           ",
"          > < 3.6.8.S G H H ^ ^ G H ^ S 8.6.3.< >               ",
"          . > :.,.4./ S ) ) A ) ) ) S / 1.,.:.> .               ",
"              > > < 3.7.7.7.7.7.7.6.7.3.< > >                   ",
"              . . > :.<.<.<.<.<.>.<.<.:.> . .                   ",
"                    > > > > > > > > > >                         ",
"                    . . . . . . . . . .                         ",
"                                                                ",
"                                                                ",
"                                                                ",
"                                                                "
};
