/* XPM */
static char *trueexit1723131286[] = {
/* columns rows colors chars-per-pixel */
"64 64 162 2 ",
"   c None",
".  c #010100",
"X  c #080601",
"o  c #0B0A01",
"O  c #120600",
"+  c #1C0600",
"@  c #120D02",
"#  c #180A01",
"$  c #151101",
"%  c #1C1503",
"&  c #1F1903",
"*  c #270A01",
"=  c #280A01",
"-  c #320600",
";  c #3D0B03",
":  c #251D04",
">  c #291301",
",  c #311801",
"<  c #3B1D15",
"1  c #212100",
"2  c #2B2204",
"3  c #2B2A01",
"4  c #312606",
"5  c #352905",
"6  c #3B2E06",
"7  c #333103",
"8  c #3E3107",
"9  c #3F3C01",
"0  c #33320B",
"q  c #4A0801",
"w  c #6D0701",
"e  c #610C05",
"r  c #750000",
"t  c #7A0500",
"y  c #4C2101",
"u  c #542901",
"i  c #453507",
"p  c #4B3A08",
"a  c #503E08",
"s  c #4B251E",
"d  c #7C3D02",
"f  c #582821",
"g  c #403830",
"h  c #662F29",
"j  c #6E3D38",
"k  c #454301",
"l  c #4B4505",
"z  c #4B4B02",
"x  c #5B4C05",
"c  c #5B470A",
"v  c #5E490A",
"b  c #544209",
"n  c #585403",
"m  c #505011",
"M  c #624C0B",
"N  c #6B530C",
"B  c #70570B",
"V  c #745A0D",
"C  c #795E0D",
"Z  c #795905",
"A  c #6A6704",
"S  c #7E610E",
"D  c #797702",
"F  c #7E7B02",
"G  c #594C46",
"H  c #6E524D",
"J  c #615E58",
"K  c #8E0000",
"L  c #920300",
"P  c #A70000",
"I  c #BB0000",
"U  c #E90201",
"Y  c #E80807",
"T  c #F40000",
"R  c #FC0000",
"E  c #FA0D0D",
"W  c #83660D",
"Q  c #87690F",
"!  c #8C6D0F",
"~  c #91710F",
"^  c #957411",
"/  c #997710",
"(  c #9C7A11",
")  c #A27E12",
"_  c #C06003",
"`  c #D76C03",
"'  c #DC7603",
"]  c #A3625F",
"[  c #DA5251",
"{  c #E95656",
"}  c #F45757",
"|  c #EA6363",
" . c #F36767",
".. c #EF7B7B",
"X. c #E07D7C",
"o. c #F17B7C",
"O. c #898503",
"+. c #8E8B02",
"@. c #848102",
"#. c #948D04",
"$. c #908403",
"%. c #9A9603",
"&. c #A29D03",
"*. c #A58211",
"=. c #AB8512",
"-. c #AF8813",
";. c #B48C13",
":. c #B88F14",
">. c #BC9214",
",. c #ACA704",
"<. c #A6A203",
"1. c #B9AA04",
"2. c #BAB504",
"3. c #AAA619",
"4. c #C19615",
"5. c #C59915",
"6. c #CB9E16",
"7. c #C2BD05",
"8. c #DAB204",
"9. c #CFA116",
"0. c #D3A416",
"q. c #DAA917",
"w. c #D6A618",
"e. c #DCAB18",
"r. c #E2AF17",
"t. c #E1AF19",
"y. c #E3B119",
"u. c #E9B519",
"i. c #EEB919",
"p. c #F3BD1A",
"a. c #CBC603",
"s. c #D9CD04",
"d. c #DED806",
"f. c #D7D204",
"g. c #DED815",
"h. c #D9D41F",
"j. c #E0CD04",
"k. c #E1DB04",
"l. c #F3D105",
"z. c #F7D30C",
"x. c #F7C019",
"c. c #FDC51A",
"v. c #FFCA1B",
"b. c #E8E306",
"n. c #ECE60E",
"m. c #F5ED05",
"M. c #F2EC0F",
"N. c #F6F006",
"B. c #FFFC06",
"V. c #EAE51B",
"C. c #FFF912",
"Z. c #F8F41D",
"A. c #DED820",
"S. c #FBF72F",
"D. c #FCF623",
"F. c #8E938F",
"G. c #9CA09D",
"H. c #DCBBBB",
"J. c #EBADAD",
"K. c #F0B1B1",
"L. c #E8C6C6",
"P. c #E7C4C4",
/* pixels */
"                                                                                                                                ",
"                                                                                                                                ",
"                                                                                                                                ",
"                                                                                                                                ",
"                                                                                                                                ",
"                                                                                                                                ",
"                                                                                                                                ",
"                                                                                                                                ",
"                                                                                                                                ",
"                                                                                                                                ",
"                                                                                                                                ",
"                                                                                                                                ",
"                                                                                                                                ",
"                                                                                                                                ",
"                                                                                                                                ",
"                                                                                                                                ",
"                                                                                                                                ",
"                                                                                                                                ",
"                                                                                                                                ",
"                                                                                                                                ",
"                                                                                                                                ",
"                                                                                                                                ",
"                                                                                                                                ",
"                                                                                                                                ",
"                                                                                                                                ",
"                                      - j H w #                                                                                 ",
"                                < g ; P o.K.U =                                                                                 ",
"                              r [ H.Y R o.J.U =                                                                                 ",
"                          s t U } L.E R o.K.U =                                                                                 ",
"                        F.| R R } L.E R ..J.U =                                                                                 ",
"                        G. .R R } L.E R ..J.U *                                                                                 ",
"                          h L T } L.E R ..J.U *                                                                                 ",
"                              K { L.E R ..J.U *                                                                                 ",
"                                f G e I X.K.U *                                                                                 ",
"                                        J ] Y *                                                                                 ",
"                                          + q @                       o 0 0 0 0                                                 ",
"                                              o                       7 V.V.Z.S.m .                                             ",
"                                              o                       7 ,.O.l.z.Z >                                             ",
"                                              o                       7 N.l.' ' ` d .                                           ",
"                                              o               . . . . 6 N.m.j.j.x O                                             ",
"                                              o             k ,.&.%.+.2.B.B.B.N.z .                                             ",
"                                              X .         . 3 %.s.%.D <.2.#.%.f.k .                                             ",
"                                          . @ & &   : :   % % 2 %.l % 3 n $ 2 %.#.5 : .                                         ",
"                            X o X X       . M ;./ @ ) w.4 v >.;.& ( q.5 c ;.:.: -.c.6.o                                         ",
"                          o +.@.@.3.@     . V >.;.;.w.t.;.-.q.e.>.0.y.:.-.0.q.:.t.v.0.o                                         ",
"                          $ 1.n A A.@     . C >.>.t.t.t.y.y.y.y.y.y.e.u.p.i.u.y.u.c.0.X                                         ",
"                        , ) ' 8.n.h.o . . . N ;.;.t.y.y.y.t.y.e.y.t.t.u.c.v.i.t.u.c.t.4                                         ",
"                        , e y 1.B.n.O.F D $ N >.;.c >.e.N ( x.q.c ;.y.N ( v.y.v -.c.v.Q                                         ",
"                          . z 7.B.C.M.d.a.1 N 6.>.c >.e.N ( v.e.v ;.t.B / i.e.v ;.v.v.Q                                         ",
"                          o <.f.b.g.D.d.7.1 N 9.t.y.y.y.y.y.x.i.t.t.t.t.t.t.t.y.y.c.c.V                                         ",
"                          . X O.@.0 V.l o . N 5.y.t.t.t.t.y.x.i.t.t.t.i.i.t.t.t.y.v.w.@ . X   . X   X .                         ",
"                          X V l x ( 9 *.v . N 5.t.t.y.u.y.y.i.u.t.t.t.x.c.u.t.t.y.c.9.. : S @ C V % :.2                         ",
"                          X ( S / w.C u.Q i ~ 5.t.t.e.y.y.e.y.e.t.t.t.x.c.p.t.t.y.c.q.8 : ;.C >.>.Q p.6                         ",
"                          o / 4.y.y.u.c.W ~ ;.5.t.y.y.y.y.q.4.>.>.>.e.v.c.c.i.t.y.p.u.V : ;.t.y.u.u.c.6                         ",
"                          o / B Q 9.M q.W ~ :.5.t.u.u.y.e.>.~ p p i / c.c.c.c.y.t.t.y.V : -.M -.-.N p.6                         ",
"                          X ( N S 6.a q.Q / 6.q.y.u.y.e.9.:.S . . . V v.c.c.c.y.t.t.y.V : -.b =.*.v p.6                         ",
"                          o / 0.y.t.y.c.W ! >.q.y.u.t.e.>.V : . . . : C x.c.v.p.t.t.y.V : ;.e.y.t.u.c.6                         ",
"                          o / 0.t.t.t.c.Q ! 5.e.t.e.y.6.>.p . . . . . 4 x.c.c.p.t.t.u.V : >.e.t.t.y.p.6                         ",
"                          X / 0.y.t.t.i.>.=.9.t.t.t.y.6.;.a . . . . . 5 x.c.c.c.u.t.t.5.-.e.t.t.t.p.c.6 .                       ",
"                        . 6 ) 0.y.t.t.6.;.>.e.t.t.t.y.6.>.p . . . . . 4 x.v.c.c.p.t.t.y.y.t.t.t.p.c.c.p p $                     ",
"                : : 2 : 8 ) ;.0.t.t.e.>.;.>.5.e.t.t.y.6.;.a . . . . . 5 c.c.c.c.c.y.t.t.t.t.t.y.p.c.c.W 4.a 4 5 @               ",
"    . . .     . C :.-.5.0.;.;.9.y.t.6.;.;.;.;.e.t.t.e.>.:.a . . . . . 5 c.c.c.c.c.c.y.t.t.t.t.e.i.c.c.y.t.e.e.t.b .     . .     ",
"  4 5 6 i 6   4 ~ 0.5.>.6.;.;.w.y.q.5.0.;.;.>.q.t.t.5.;.:.a . . . . . 4 c.c.c.v.c.p.y.t.t.t.t.y.c.c.c.u.t.t.t.y.>.p   4 p p i   ",
". S ;.>.u.) i -.;.0.e.;.5.;.4.t.t.q.w.5.-.;.;.q.t.y.>.;.:.p . . . . . 4 c.c.c.c.c.c.y.y.t.t.t.i.c.c.c.u.t.t.t.t.t.t.5 N c.v.;.. "
};
