/* XPM */
static char *floor11723131231[] = {
/* columns rows colors chars-per-pixel */
"64 64 89 1 ",
"  c #C79F04",
". c #C89F04",
"X c #C9A107",
"o c #CBA30A",
"O c #D0A70C",
"+ c #D2AA0E",
"@ c #CDA613",
"# c #CEA816",
"$ c #CFA919",
"% c #D5AD12",
"& c #D8AF12",
"* c #D1AC1D",
"= c #DBB214",
"- c #D6B11F",
"; c #D9B21A",
": c #E2B817",
"> c #E3BA1A",
", c #E8BE1D",
"< c #D2AF24",
"1 c #D3B026",
"2 c #D8B324",
"3 c #DEB826",
"4 c #D5B32C",
"5 c #D8B52F",
"6 c #D7B532",
"7 c #D8B735",
"8 c #DAB93B",
"9 c #EAC11F",
"0 c #EDC421",
"q c #E7C12A",
"w c #ECC42A",
"e c #F0C723",
"r c #F6CC26",
"t c #F7CD29",
"y c #F8CE29",
"u c #E5C23A",
"i c #EAC63B",
"p c #EECA3F",
"a c #F6CE33",
"s c #F5CF3B",
"d c #F7D036",
"f c #F8D034",
"g c #F6D13B",
"h c #F8D23C",
"j c #DEBE44",
"k c #EECA43",
"l c #E1C34D",
"z c #ECCB4B",
"x c #F1CE45",
"c c #F2CF49",
"v c #F5D044",
"b c #F8D345",
"n c #F4D14B",
"m c #E1C453",
"M c #EFCE50",
"N c #E5CA5F",
"B c #F4D353",
"V c #F8D651",
"C c #F5D55B",
"Z c #F8D95E",
"A c #E7CC65",
"S c #E8CF6A",
"D c #EAD16D",
"F c #F5D761",
"G c #F6D866",
"H c #F3D768",
"J c #F6DA6D",
"K c #ECD474",
"L c #EED77B",
"P c #EFD87F",
"I c #F5DB74",
"U c #F8DE73",
"Y c #F5DD7C",
"T c #F8DF7C",
"R c #F8E07E",
"E c #EFD980",
"W c #F2DC83",
"Q c #F3DE89",
"! c #F7E082",
"~ c #F8E184",
"^ c #F5E08B",
"/ c #F8E28C",
"( c #F6E293",
") c #F9E594",
"_ c #F7E499",
"` c #F9E79C",
"' c #F9E89F",
"] c #F9E7A0",
"[ c #FAE8A1",
/* pixels */
"ttttttttttttttryyryyyyttrtrytttyyytttttttgtttttttrtyyyyyyttttttt",
"tttyyyyyrrttttrteeeeeehhdhyyttee0ertttrerttttttttreeeedgddfytttt",
"tt9>:>:>xZhdyyteOoooo5_`_)Fnyt+ooo+0ZZZZnfddttttyeooX5```)Cvtttr",
"yy:XXXXXD'Fndyye&OoX.<YL)'Fxtt&+XXX*IQ'`ICnnayttreoXX1PP)'JCgttt",
"ty:XXXXXD[Cnnnttt0oXo ooK[Fcyryeo. oo7[[`_FnnntyyeoXXXooD['_Cvyt",
"ty:.XXXXD[FnnnytteoX o olLHFnbye=%%+ <KK('FnnndtyeoXXXXXmL('JCat",
"ty:XXXXXD]Fnnnytteo o o ooK[[_hyttt0oo oD[CnnnnnyeoXXXXXoXL]')gt",
"ty>XXXXXD]Fnnnytywoo o o oK[`_hrtty0  o D[CnnnnnyeoXXXXoXXK[')dt",
"tt:XXXXX48D!Bnvhtr9>o o XX48Q`RUvhy0o oX48D~~RBntt0>9:XXXX48Q`gt",
"tt>XXXXoXXK'Cnnntty0o  oXo  P''_Bxy0o  X  L['_Bnyttty0XXoXXXE_dt",
"ty>XoXXXXX<6I~Bvarrr0>  XXXo17Q[/Tns0>XXXX<6Q`/Wnvhgy9XXXXXX15rt",
"ty>XoXXXXXXXE'Bntyyyy0 o oXoXoQ`[)nxy0XXXXXoL``)Bnnny9XoXXXXXX0t",
"tte90>XXXXXoE`Cnxhyry9XXXXXXXo^[[)Bxy9oXXXXo*<<4knnbtt99+XXXXoet",
"ttyyy9ooooooL(Cnnnyyy0oooXXXXoW_`)Bny9ooooXX XXoznnnttyy=ooooOet",
"tgbvttee0e+X$1W/Bnnstree%XXXXX*4(`)Tyteeee+XoXX#^/nnngyyreeeeett",
"tvnbddttyt&oXoL^nnnnttty=oXoXX.@E([~yyyayt=oo X@E^BBBnffdyyrttrt",
"tgnC)Rvvatrw+X@$xnnxttttee+XXXXX@4)/nnnnatsk#XXX@4/_)_))))bryttt",
"takMQYBCsyyr+XXoiknvyytttt=+oXXXX$_(BBBCgtvn%XXXX#EQQ^QQQQVdyytt",
"teOoo7_`Fvyt+XXoo%knnvttytre+XXX $_['`__Hvnv#XXXXXo@@o@oo@K`hyry",
"t0oXX4']Gnsa+XXXo#CCnvayttyt&+XXo$KPYQ`'Gnnn;+#%ooXXXXXoXXNPVtrr",
"teoXX4][Gnnv*XXXX*_/nnnnayttte+XXXooX6``GnnnttvkoXXXXXXXXXo@EZtt",
"yeoXX<KKHFnn%XXX.#KKFCnnsatttr=+oXXXX4'`IFnnsavp=%&+XXXXXXXoAnrt",
"yeoXoXXXD[Cx#XXXXXX<_~nnnnyrttyeoXXXX4````Fnnnytttt9XXXXXXXXX:yy",
"teoXXXXXD[Fx* XXXXX1`^nnnnartyteo XXX6]][`Fnnnytttt9oXXXXXXXX:yr",
"yeoXXXoXS'Zn0>oXXXX@6l!!Cnvgyttt0>oXX@7877J!Bnvhggtr9999999>O:yy",
"yeoXXXXXD'Znar%XXXXXX4''GnnnatttywoXXXXXXXK]Cnnnnvtrryryttyr+:yy",
"yeoXXXXXS[Zcae0,oXXXX@54D/Cnnstttt9>XXXXXX14-1I^^^RRvgyrtttt9eyy",
"yeoXXXXXS[FcatyrOXXXXXXXS`Fnnnytyty0ooXoXXXXXoE]``])npyyttrtyryr",
"yeoXXXXXD[FnnhyroXXXXXXX*1K/Bnnstttre9e9&XXXXX<<17_/nnvnayryyyyr",
"yeOoooXXA_FnBnye+oXXXXXX.XK)Fnnnytttyyyy=oXoXXXXX#_/BBMndryyyyry",
"reeee,XX**K))/dte9oXXXXXXX**Y(Bncnnsyyyyeee0OXXXX<)'))))Cnnvaryy",
"yyyyy9XX.XS(`_htye+oXXOoooXXK/MxBBnvyyyrtttt%oXX $E(^(''Jnnnatyr",
"tttty9XXXX@$W_Bxtte9X+eere+X@@O*Q/nnnhttttttr0+XXo@#@8``_)Cnnnyy",
"rttty9+OXXXoDQZBafyw%;yttt=OXXX@/)Bnnxyyyyyttt%OXXXX.4QQ)[JBnntt",
"tdttttet&XXXo$Q)nnnnxstrttre+XX#()BnnccnvnattteeoXXXXoooK[[_Zstt",
"tsfttttt&XXXX@Q_FCnnnvattttt+XX@KKpkCCCZBnsyttte%++OXXoXmEEPztty",
"thnvtttt%XXXX@Q['/Bnnnnnattt+XXXooo4_```Gnnvyttttty9oXXXoooo >tt",
"annvaytt:+%+ooAL_)Bnnnnndatr=++&XX $KW``IFBnsyaytty9++XXX oX >tt",
"dnnnnvrtttyt+oX$/)nnnnnnnnttttyeooo  6`[``Fnnnnntttty9oXXXXX >tt",
"axnnnhyyrttt+ X$()Bnnnnnnnatttyeo .o 4[```Fnnnnntttty9oXXXXXX>yt",
"tynnnnhsytrt0>oo6jWInC~!Cnvgartr0:oXX@87L[^!Bnnnxhvaye,,,,>,o>yt",
"yynnnnnnatttyrO..$_/nF''JvnnattttwoXXX..S[`'Znncnnnnytytyytt+>yt",
"td^TBnnnattttro.Xo44;8'`HnnngvyryeoXXoXX<6W`///!Bnnnssttyttt9ett",
"tg)/nnnnayttrr%oXXX X4__JnnnnnftyeooXXXX.XK`_`'_Bnnnnvttttttyttt",
"tg_/nnnnxvytyre,ooXXXo1<D)////nnvhe>ooXoXX$4<4Q_Bnnnnnvnatttyttt",
"tg`/BnnnnnaytyyroXXXXXXXA')__)CnBnywoXXXXX XXoE/Bnnnnnnnatttyytt",
"rd_/nnnnnnnnytteoXXXXXXX#$$$$<E))~nse9XXXXXXXo$4Q/Bnnnnnnvxvnvgt",
"twQQnnnnnnncayrr+OoXXXXXXXoXXoL(^QBvy0XXXXXXXX @W^BBBBnnnnnnnnht",
"t=@2nnnnnnnnvvytr0oXXXXXXXoXXo@#@-nnt9XXXXXXXXXX@1/__~nnnnnnnnvy",
"t+X@pxBCnnnnnnytteOOXXXXXXXXXXXXXoBny0++oXXXXXXXX#E/`/BCnnnnnnst",
"y+XXX6_'Gxnnnnatttt9XXXXXXXXXoXXX*(^nxet%.XoXXXXXXo6_'__Gxnnnnvy",
"y=XXX1PYJCCCBnayytyw+++@ooXXXXXXX$_/nvtt=+++++++oo *PQ[]UCBnnnst",
"yeoXXooXD['_Cnnnnvttrrte&XXXXXoXX*_)nvttyttteyyeoXXoX6[[`_Zcnnst",
"ye&+XXoXmL('JCnnnnayytyt:+%+oXXXX#DKGByaaattttyeoXXXX<KK(`IFBnat",
"ytt9oXXXXoK['_Bnnnnvttttyyrr+XXXXXX1`QnnnnyttttrooXXXXXXS[``Bnyt",
"yty9XXXXXXK['_Cnnnnhttttyyyr+XXXXXX<`/nnnnytrtteooXXXXXXD[``Zstt",
"ttte,:XXXX48Q_Cnnnnnhgttrttt9>9>oXX@7l~~Znxhyttr,>oXXXXX4888LVtt",
"ttyty0XXXo XP`BnnnnnnvttytttyyyrOXXX.4`'GxnnatttyeOXoXXX    YCtt",
"ttvvva99+XXo14*3YWBnnnvvhvatyyyeoXXXX6``GnnnxhytreXXXXXXoXXo1qyt",
"tynnBvyy=XXXXX @^(BnnnnnnnyttyyeOXXXX4_`GnnnnnatreOoXXXXXXXX.:yt",
"td///Tnvt0+XXXXo*7^//Tnnnnvvtttt9,XX.o<<D/Znnnnvyye>XXXXXXXXX>yy",
"td)__!nnay%oXXX .*^)_!BBhsasyyttyt>::>:>xUFnnnncyyyeOXOXooooX>yt",
"ttdhgdygxsre=+%%+=333uJJhttttrttyyyyytttryayyyyyyryreeeeeeeeeett",
"tttyttttttyyyttttyetttttttttyrttyytttttttyttttyryyyryyyryyyyytyt"
};
