/* XPM */
static char *player1723131352[] = {
/* columns rows colors chars-per-pixel */
"64 64 103 2 ",
"   c None",
".  c #040000",
"X  c #0A0201",
"o  c #160400",
"O  c #1A0500",
"+  c #1C0800",
"@  c #100A0A",
"#  c #161010",
"$  c #1C1718",
"%  c #250400",
"&  c #2B0500",
"*  c #230B00",
"=  c #290C00",
"-  c #350600",
";  c #3B0700",
":  c #300F00",
">  c #3D0B00",
",  c #351100",
"<  c #241F1F",
"1  c #302B2B",
"2  c #430800",
"3  c #4F0A00",
"4  c #540B00",
"5  c #5D0C00",
"6  c #441600",
"7  c #4E1A00",
"8  c #5D1600",
"9  c #571D00",
"0  c #5C1F00",
"q  c #650D00",
"w  c #6A0E00",
"e  c #730F00",
"r  c #642200",
"t  c #6B2500",
"y  c #762000",
"u  c #762800",
"i  c #7B2B00",
"p  c #514D4D",
"a  c #575353",
"s  c #595555",
"d  c #5F5C5C",
"f  c #666262",
"g  c #696565",
"h  c #736F6F",
"j  c #737070",
"k  c #831100",
"l  c #8A1200",
"z  c #8D1800",
"x  c #921300",
"c  c #9C1500",
"v  c #931B00",
"b  c #A31500",
"n  c #AA1600",
"m  c #AB1A00",
"M  c #B01600",
"N  c #B51800",
"B  c #BC1900",
"V  c #852900",
"C  c #8B2C00",
"Z  c #982000",
"A  c #8E3100",
"S  c #953400",
"D  c #B32200",
"F  c #B32900",
"G  c #BF2800",
"H  c #A43300",
"J  c #A83000",
"K  c #A23800",
"L  c #AC3C00",
"P  c #B23C00",
"I  c #C41A00",
"U  c #CE1B00",
"Y  c #D21C00",
"T  c #CA2000",
"R  c #D22000",
"E  c #D22F00",
"W  c #C33300",
"Q  c #CE3400",
"!  c #C43D00",
"~  c #D03E00",
"^  c #DA3E00",
"/  c #B74000",
"(  c #BE4300",
")  c #C34400",
"_  c #CC4700",
"`  c #CE4800",
"'  c #D54000",
"]  c #D44A00",
"[  c #DB4B00",
"{  c #E04F00",
"}  c #858282",
"|  c #888585",
" . c #939191",
".. c #B6B5B5",
"X. c #B8B6B6",
"o. c #BBBABA",
"O. c #C1BFBF",
"+. c #C4C3C3",
"@. c #C8C6C6",
"#. c #DFDEDE",
"$. c #EDECEC",
"%. c gray94",
"&. c white",
/* pixels */
"                                                                                                                                ",
"                                                                                                                                ",
"                                                                                                                                ",
"                                                                                                                                ",
"                                                                                                                                ",
"                                                                                                                                ",
"                                                                                                                                ",
"                                                                                                                                ",
"                                                                                                                                ",
"                                                                                                                                ",
"                                                                                                                                ",
"                                                                                                                                ",
"                                                                                                                                ",
"                                                                                                                                ",
"                                                                                                                                ",
"                                                                                                                                ",
"                                                                                                                                ",
"                                                                                                                                ",
"                                                                                                                                ",
"                                                                                                                                ",
"                                                                                                                                ",
"                                                                                                                                ",
"                                                                                                                                ",
"                                                                                                                                ",
"                                                                                                                                ",
"                                                                                                                                ",
"                                                                                                                                ",
"                                                                                                                                ",
"                                                                                                                                ",
"                                                . .                         . .                                                 ",
"                                            . X X . X                     X X . . X                                             ",
"                                            .                                     .                                             ",
"                          . .                   . . . .                 . . X .                   . X                           ",
"                        , A +     X %         . . #  .d .             X j | X . X         * X     + A ,                         ",
"                      . , _ = .   O N -       . . f &.O.s X         . j &.O.. X .       , ( *   . = _ , .                       ",
"                      . 7 ] r . % 2 I -     . . . g &.&.@.X         X @.&.o.. . . .     , _ 6 + . r ] 7 .                       ",
"                      X L _ : X 4 U U -     . 1 } ..&.&.+.X         X +.&.#.| | 1 .     , ] ] 9 . : ` L X                       ",
"                      X / [ P m B U U -     . s &.&.&.&.+.X         X +.&.&.&.&.s .     , ] ] ) P / [ L X                       ",
"                        7 S { ' Y B 5 %     . p $.$.$.%...X .     X X ..%.$.$.$.p .     = r ) ] [ { H 7                         ",
"                        . 0 S S Q M X       . @ < < < < $ X .     . . $ < < < < @ .       X F ~ v z 4 .                         ",
"                            . + ! D X           . - l l l l %     % k l l l - .           X D G O .                             ",
"                              + ) W 5 %         2 l Y Y Y Y l . X l Y Y Y Y l 2         % 5 B I O                               ",
"                              + K _ E 3 % & & % x Y U Y Y U B c c B Y U U U Y c % & & % 3 U I c O                               ",
"                                o S ' T I I I I U U U U Y U Y Y Y Y U U U U U U I I I I U Y x X                                 ",
"                                  * i ^ Y U U U Y Y U U U U U U U U U U U U Y Y Y U U U Y e %                                   ",
"                            . . . . * y U U U U k k U U U U U U U U U U U Y k k U U U U e % . . . .                             ",
"                          , 6 6 6 6 6 8 U U U Y 2 X k U Y U U Y U U U U U k X 2 Y U U U 5 2 2 2 2 2 -                           ",
"                        o i ) ) ) ) ) ! U U U U z . % B U U U U U U U Y B % . l U U U Y B B B B B B e o .                       ",
"                      X K t o + + O o > U U U U I ; . w Y U U U U U U Y e . - I Y U U I ; o O O O o q x X                       ",
"                      X P r .       . & I U U U Y l . % 2 2 2 2 2 2 2 2 % . l Y U U U U & .       . q n X                       ",
"                      X L r .       . & U U U U U U w X . . . . . . . . . w U U U U U I & .       . 5 b X                       ",
"                        , =   = & & & 3 U U U U U U I b c b b c c b b c c U Y U U U U U 4 & & & &   & -                         ",
"                            . V T I B I I I I U U U Y Y Y Y Y U Y Y Y Y Y U U U U I I I I B I U e X                             ",
"                            . C Z % & & & % - N U U U U U U U U U U U U U U U U B - % & & % % x l .                             ",
"                            . A A .   . 2 e l U Y Y Y Y Y Y Y Y Y Y Y Y Y Y Y Y U k k ; .   . l l .                             ",
"                            . t t .   6 w c l z l l l l l l l l l l l l l l l l l x x w 2   . w q .                             ",
"                              . .   X J w . . . . . . . . . . . . . . . . . . . . . . w b X   . .                               ",
"                                    X H q .                                         . q b .                                     ",
"                                      > &                                             - -                                       ",
"                                                                                                                                ",
"                                                                                                                                ",
"                                                                                                                                ",
"                                                                                                                                ",
"                                                                                                                                "
};
