/* XPM */
static char *playercool1723131378[] = {
/* columns rows colors chars-per-pixel */
"64 64 136 2 ",
"   c None",
".  c #030000",
"X  c #0B0101",
"o  c #0D0A0A",
"O  c #150500",
"+  c #1A0500",
"@  c #170C02",
"#  c #1D0900",
"$  c #130F0F",
"%  c #1D1102",
"&  c #1B1414",
"*  c #1E1818",
"=  c #250400",
"-  c #2B0500",
";  c #250C00",
":  c #290C00",
">  c #340600",
",  c #3A0700",
"<  c #300F00",
"1  c #3D0B00",
"2  c #221503",
"3  c #351100",
"4  c #221B1B",
"5  c #3F2605",
"6  c #202022",
"7  c #2D2525",
"8  c gray18",
"9  c #312727",
"0  c #352B2B",
"q  c #392F2F",
"w  c #323232",
"e  c #3E3535",
"r  c #430800",
"t  c #4F0A00",
"y  c #540B00",
"u  c #5D0C00",
"i  c #441600",
"p  c #4B1306",
"a  c #4E1A00",
"s  c #5D1600",
"d  c #5B1F00",
"f  c #650D00",
"g  c #6A0E00",
"h  c #730F00",
"j  c #442B06",
"k  c #543407",
"l  c #642200",
"z  c #6B2500",
"x  c #6F2D09",
"c  c #762000",
"v  c #762800",
"b  c #7B2B00",
"n  c #693E07",
"m  c #773A0A",
"M  c #463A3A",
"N  c #493D3D",
"B  c #68332B",
"V  c #6B440A",
"C  c #79470A",
"Z  c #704A09",
"A  c #794E0A",
"S  c #654F2A",
"D  c #534747",
"F  c #564949",
"G  c #5A4D4D",
"H  c #545759",
"J  c #655757",
"K  c #6B6B6E",
"L  c #747779",
"P  c #831100",
"I  c #8B1200",
"U  c #8D1800",
"Y  c #921300",
"T  c #9C1500",
"R  c #931B00",
"E  c #A31500",
"W  c #AA1600",
"Q  c #AB1A00",
"!  c #B01600",
"~  c #B51800",
"^  c #BC1900",
"/  c #852900",
"(  c #8B2C00",
")  c #86240B",
"_  c #8E260C",
"`  c #982000",
"'  c #9B260D",
"]  c #8E3100",
"[  c #953400",
"{  c #9B3F0D",
"}  c #B32200",
"|  c #B32900",
" . c #BF2800",
".. c #B72E0F",
"X. c #A43300",
"o. c #A83000",
"O. c #A23800",
"+. c #AC3C00",
"@. c #B23C00",
"#. c #B3320F",
"$. c #C41A00",
"%. c #CE1B00",
"&. c #D21C00",
"*. c #CA2000",
"=. c #D22000",
"-. c #D22F00",
";. c #C33300",
":. c #CE3400",
">. c #C43D00",
",. c #D03E00",
"<. c #DA3E00",
"1. c #84420B",
"2. c #B74000",
"3. c #BE4300",
"4. c #94600D",
"5. c #A56C0E",
"6. c #C34400",
"7. c #CC4700",
"8. c #CE4800",
"9. c #D54000",
"0. c #D44A00",
"q. c #DB4B00",
"w. c #CF4411",
"e. c #CE5111",
"r. c #D25411",
"t. c #E04F00",
"y. c #C57B10",
"u. c #D07E11",
"i. c #D78112",
"p. c #D38B11",
"a. c #848484",
"s. c #8B8B8B",
"d. c #939393",
"f. c #B8A19E",
"g. c #B7AC9A",
"h. c #A4A4A4",
/* pixels */
"                                                                                                                                ",
"                                                                                                                                ",
"                                                                                                                                ",
"                                                                                                                                ",
"                                                                                                                                ",
"                                                                                                                                ",
"                                                                                                                                ",
"                                                                                                                                ",
"                                                                                                                                ",
"                                                                                                                                ",
"                                                                                                                                ",
"                                                                                                                                ",
"                                                                                                                                ",
"                                                                                                                                ",
"                                                                                                                                ",
"                                                                                                                                ",
"                                                                                                                                ",
"                                                                                                                                ",
"                                                                                                                                ",
"                                                                                                                                ",
"                J                                                                                                               ",
"                J       J                                                                                                       ",
"          J       J                                                                               6                             ",
"                J                                                                               d.s.o                           ",
"      J     J   J                                                                             8 h.8                             ",
"      J     J J J J J                                                                         w a.                              ",
"      J         J                                 . .                     . .                 6 K                               ",
"          J J                                       . .                 . .             k V V V V V 5                           ",
"                  r B                               . .                 . .             5.p.p.p.p.p.A                           ",
"                  r f.L                               . .             . .               { r.e.e.e.r.x                           ",
"                    H g.S                             . .             . .               r #.w.w.w.' ;                           ",
"                      j 4.j                                                               C i.u.y.j                             ",
"                        % O .                 . & X . .                 . . . . X         p ) .._ X .                           ",
"                        < ] #     X =         o N q . . .             e 7 . . . X         ; . 1.m + ] 3                         ",
"                      . 3 7.: .   + ~ >       * q D 9 . . .         & N G 7 . . .       3 3.# Z 2 ; 8.3 .                       ",
"                      . a 0.l . = r $.>     X $ 7 0 D q $ . . . . . $ 7 q G 7 o . X     3 7.i V @ l 0.a .                       ",
"                      X +.8.< X y %.%.>     X . $ 7 q D G & . . . . . & 9 M G D 7 .     3 0.0.d X < 8.+.X                       ",
"                      X @.q.@.Q ^ %.%.>     . . . $ 7 q D w         . . 4 7 0 M D o     3 0.0.6.+.2.q.+.X                       ",
"                        a [ t.<.&.^ u =     . . . . $ 7 9 M *     . . . . $ 4 0 q o     : l 6.0.q.t.X.a                         ",
"                        . d [ [ :.! X       . . . . . X & 4 X     . . . . . . 4 * X       X | ,.R U u .                         ",
"                            . # >.} X           . 1 I I I P =     = I I I I , .           X }  .+ .                             ",
"                              + 6.;.u =         r I &.&.&.&.I X X I &.&.&.&.I r         = u ^ $.+                               ",
"                              # O.7.-.t = = = = Y &.%.%.&.&.^ Y T ^ &.%.%.%.&.Y = = = = t %.$.T +                               ",
"                                O [ 9.*.%.$.$.%.%.%.%.&.&.%.&.&.&.&.%.%.%.%.&.%.%.$.$.%.%.&.Y X                                 ",
"                                  : b <.%.%.%.%.&.&.%.%.&.%.%.%.%.%.%.%.%.%.&.&.%.%.%.%.&.h =                                   ",
"                            . . . . ; c $.&.%.&.P P %.%.%.%.%.%.%.%.&.%.%.&.P P &.%.%.%.h = . . . .                             ",
"                          3 i i i i i s $.%.%.%.r X P %.%.%.%.%.%.%.%.%.%.h O r %.%.%.%.u , r r r r >                           ",
"                        @ v 6.6.6.6.6.>.&.%.%.&.I . = ^ &.%.%.%.%.%.%.%.^ = X I &.%.%.%.$.^ ^ ^ ^ ^ h O .                       ",
"                      X O.z @ + # # O r $.&.%.&.$., . h &.&.%.%.%.%.&.&.h . , $.&.%.%.$.1 O + + + O f Y X                       ",
"                      X @.l .       . = $.%.%.%.&.I X + r r r r r r r r = X I &.%.%.%.%.- .       . f W X                       ",
"                      X +.l .       . - $.%.%.%.%.%.g . . . . . . . . . . g %.%.%.%.%.$.- .       . u W X                       ",
"                        3 :   : > - - t %.&.%.&.%.%.%.E T E E T T E E T T %.%.%.%.%.%.%.y - - - =   = >                         ",
"                            . / *.$.$.$.$.$.$.%.%.%.%.&.&.%.&.&.&.&.&.&.%.%.%.%.%.$.$.$.$.$.$.%.P .                             ",
"                            . ( R = = = = = > ^ %.%.%.%.%.%.%.%.%.%.%.%.%.%.%.&.^ > = - = = = Y I .                             ",
"                            . ] [ .   . r P P %.&.&.&.&.&.&.&.&.&.&.&.&.&.&.&.&.$.P P 1 .   . I I .                             ",
"                            . z z .   i g I Y U I I I I I I I I I I I I I I I I I Y Y g r   . g f .                             ",
"                              . .   X o.g . . . . . X . . . . . . . . . . . . X . . . g W .   . .                               ",
"                                    X X.f .                                         . f E X                                     ",
"                                      1 -                                             > >                                       ",
"                                                                                                                                ",
"                                                                                                                                ",
"                                                                                                                                ",
"                                                                                                                                ",
"                                                                                                                                "
};
