/* XPM */
static char *Wall_1_1723131186[] = {
/* columns rows colors chars-per-pixel */
"64 64 140 2 ",
"   c None",
".  c #000100",
"X  c #0A0400",
"o  c #010C01",
"O  c #0C0B03",
"+  c #100700",
"@  c #140A02",
"#  c #1C0C01",
"$  c #011301",
"%  c #011B01",
"&  c #141204",
"*  c #220F02",
"=  c #231001",
"-  c #2C1401",
";  c #231D02",
":  c #311501",
">  c #341904",
",  c #3B1A03",
"<  c #2C1D10",
"1  c #012302",
"2  c #0B2404",
"3  c #012C02",
"4  c #013303",
"5  c #023C03",
"6  c #202001",
"7  c #2B280D",
"8  c #2D3F0E",
"9  c #3A3612",
"0  c #431E02",
"q  c #4A1F02",
"w  c #462205",
"e  c #4C2304",
"r  c #532603",
"t  c #582702",
"y  c #572906",
"u  c #5B2B05",
"i  c #452C18",
"p  c #482D19",
"a  c #4F381C",
"s  c #632D03",
"d  c #682F03",
"f  c #6C3103",
"g  c #743403",
"h  c #7A3704",
"j  c #7D3903",
"k  c #623D23",
"l  c #014403",
"z  c #004B02",
"x  c #064408",
"c  c #064D09",
"v  c #005302",
"b  c #015C04",
"n  c #075309",
"m  c #08550A",
"M  c #065D0A",
"N  c #085B0B",
"B  c #204607",
"V  c #016304",
"C  c #016B04",
"Z  c #066409",
"A  c #09630B",
"S  c #056A08",
"D  c #096B0C",
"F  c #017405",
"G  c #027D05",
"H  c #047409",
"J  c #0A730D",
"K  c #067A09",
"L  c #0A7B0E",
"P  c #404F14",
"I  c #5E561C",
"U  c #62521D",
"Y  c #6B4226",
"T  c #634A22",
"R  c #714728",
"E  c #7E502C",
"W  c #7D6B25",
"Q  c #843C03",
"!  c #893E03",
"~  c #85542F",
"^  c #875C2E",
"/  c #905C33",
"(  c #A5683B",
")  c #A96B3C",
"_  c #A57636",
"`  c #BF7843",
"'  c #028305",
"]  c #028D06",
"[  c #07820A",
"{  c #0A840E",
"}  c #058D09",
"|  c #098D0D",
" . c #039207",
".. c #049508",
"X. c #0A930E",
"o. c #069C0A",
"O. c #089B0D",
"+. c #0C8610",
"@. c #0C8810",
"#. c #0D9511",
"$. c #0D9C12",
"%. c #07A20C",
"&. c #09A60E",
"*. c #09AC0E",
"=. c #0AB10F",
"-. c #0EA313",
";. c #0EAC13",
":. c #0CB211",
">. c #0EBB13",
",. c #10B715",
"<. c #10B915",
"1. c #0EC314",
"2. c #0FC815",
"3. c #11C316",
"4. c #10CB16",
"5. c #12CD18",
"6. c #11D117",
"7. c #12D318",
"8. c #13DA19",
"9. c #AA8037",
"0. c #AC9433",
"q. c #B39A35",
"w. c #C0A538",
"e. c #D4874B",
"r. c #D8884C",
"t. c #EA9F4F",
"y. c #EA9353",
"u. c #ED9F51",
"i. c #F39C55",
"p. c #D7B341",
"a. c #EBA34F",
"s. c #F1AD4F",
"d. c #EEB54C",
"f. c #F0B64D",
"g. c #F2A353",
"h. c #F8BB50",
"j. c #EFC549",
"k. c #F0C14A",
"l. c #F3CB49",
"z. c #F5D149",
/* pixels */
"                                                                                                                                ",
"                                                                                                                                ",
"                                                                                                                                ",
"                                                                                                                                ",
"                                                                                                                                ",
"        . . .                     . . . . . . . . . . . . . . . . . . . . . . . . . . . .                     . . . . . .       ",
"        . o o                     . o $ o $ o o o o $ o o $ o . . . . $ $ o o $ o $ $ o o                   o $ $ o . . .       ",
"        o #.;.% .         . . . . % ;.,.,.,.,.,.<.,.,.,.<.<.+.. . . n <.<.<.,.,.,.,.,.<.#.. . . .         . J <.<.<.3 . .       ",
"        o -.3.3 $         . . o x #.5.4.4.4.4.4.4.4.4.4.4.7.$.% % % A <.,.,.3.4.4.4.4.5.-.% % % $         $ { 2.4.7.L o .       ",
"        o K ..>.;.$ . . . 4 m #.5.7.>.]  .]  . . . .]  .%.5.4.3.<.3.J o $ o b .. . . .:.5.3.3.3.L . . . o -.&.] #.5.| o .       ",
"        . F ..2.,.o . . 1 <.7.7.6.7.=.] ]  .] ] ] ] ] ] o.7.6.6.7.7.J . . . b  .] ] ] ;.7.7.6.8.+.. . . . ;.*.] ..4.K . .       ",
"        o F ..4.3.D $ . 3 5.4.:.=.=.%.] ] F F F F F ] ] ..*.=.*.<.7.-.A A A n z v ] ] o.=.=.=.2.+.. 3 A D 3.*.]  .;.4 . .       ",
"        o F ] >.3.J 4 3 m 1.;.G G G G ' G z 5 5 5 5 C ' ' ] ] ] -.3.3.3.2.7.n . o F ' G G G F | L 3 J 3.1.1.&.] ] G % . .       ",
"        o F ] ] K o #.7.<.X.G v v v v v z o . . . . 5 v b ] ] ] ] ] ] ]  .2.n . o z v v v v 5 . c 7.:.} ] ] ] ]  .v . . .       ",
"        . b  .] G o #.7.1.] G v v v v v v o . . . . 5 v V ] ] ] ] ] ] ]  .2.n . o z v v v v 5 . c 7.:.] ]  . .]  .b . . .       ",
"        . % V C b o $.8.>.V z % % % 1 % % . o J L b 3 % 3 C F ] ] ] ]  . .2.n . . % % % % % 5 { { [ F C V C C V C 5 . . .       ",
"          . 1 4 3 . A +.A o o 5 4 . . . . 5 N 3.5.G 4 % 1 4 z F G F F F G 1.+.c x o . . $ x Z ;.[ z l 4 4 4 4 4 4 % . . .       ",
"          . . . . . . . . . $ -.+.. . . o ;.7.7.<.b v v 5 . $ v z v v v v ,.7.7.,.o . . 4 6.;.z v v 3 . . . . . . . . . .       ",
"            . . . . . . . . $ -.+.. . . o ;.7.7.3.b v z 5 . % z v v v v b ,.7.7.,.o . . 4 5.&.v v v 3 . . . . . . . o . .       ",
"                      . . . o z { -.$.1 o ;.5.-...v 1 $ o . o o 5 ' C z v } >.7.,.$ J -.#.H n $ $ $ 5 C C C C C C C | $.1       ",
"                        . o o 4 K 5.4.4 . -.3. .' v $ o o o o . 3 ] C z z G *.4.;.$ #.7.;.v 4 o o . l ] ] ' ] ] ] ] 2.$.$       ",
"                      +.;.;.;.l 3 C Z z l 1 1 % $ $ { ;.;.;.J . o $ $ $ o $ 1 1 3 x b S v o 5 ;.;.;.D $ $ % % $ % b ' 5 .       ",
"          . . o $ $ o D 6.5.6.n % z l z z o . . . o $.7.5.7.X.$ $ $ o o o o . . . l z z 5 . x 6.5.6.L o $ o o . o l 4 .         ",
"          . o -.,.,.,.&.......V 3 o o o o . . . $ ;.5.7.3. .o.,.,.,.,.,.,.b % . . o o o % l b ......%.,.,.,.c . . o . .         ",
"          . $ ,.7.4.4.;.] ' ' b 3 O X . . . o % 3 3.7.7.1. .&.4.4.3.1.3.>.b 4 1 1 O E k & 4 b ' ] ] *.2.4.6.n . . . .           ",
"          . o ,.4... . .' v b 1 : j 0 . . . J 3.3.7.5.5.6.5.>. .G b b b b $ 9 T a U f.u.` < % v C ] ]  ...4.m . .               ",
"          . o >.2...]  .G v v % : ! e . . . L 7.7.5.7.7.6.7.>. .F v v z $ 7 p.g.y.^ w.l.i.Y $ v V  .] ]  .4.n . .               ",
"        . N D &.&.F C F V 3 3 o - Q e . o n -.6.5.7.>.;.=.=.&.] F v 5 % . W l.d.g./ 0.z.g.Y o 3 l F F C F &.{ A M o             ",
"    . 1 4 ;.1...] v v l 4 . . . : ! q . o ;.7.7.5.1.o.] ' G G ' C 5 3 1 % U z.k.a.R 0.l.u.r.~ . % 5 l v v ' *.2.;.5 o .         ",
"    o $.5.O.] ] ] v z 3 .     . : Q e . o ;.7.5.4. .]  .' v v v 4 . 5 ] ' B s.i.r.& q.h.i.) p     . 1 v v '  .] X.5.4 . .       ",
"    . $.5.o.] ] ' v v 3 .     . : ! e . . ;.7.7.4. .] ] ' v v v 4 . l ] ' 8 _ ` / O W _ ) i .     . 1 v v ' ] ] ..5.5 . .       ",
"    o $.7.o.' C V v b 3 .     . + : B { +.3.>.%.%.] F C v % % 1 $ . 3 ' ] $ # : , > . . .         . 1 v v V G } ..4.4 . .       ",
"    . | >...] v z 4 4 %         . . N 8.8.6.&.] ' G l 4 3 . . . . . $ C F $ , f f j # . .         . % 4 4 z F ]  .=.S c x       ",
"    . V ] ] ' b l o . .           . N 8.5.6.&.] ' v $ . .         . . 5 z o e ! j Q = . .             . . 5 F  .] ] >.8.-.. .   ",
"    . $ C ] ] b z o . .           . N 6.6.5.&.] ' v $ . .         . . 5 v o e ! Q Q * . .             . . l F ] ] ] >.7.$.o .   ",
"      . $ z b v l . . .           . N 8.4.[ V b b %                   $ $ . e ! Q Q = . .             . o l b b V b ] &.H . .   ",
"        . o 5 z z o . .           . N 7.4.Z z z l o                   . . . e ! Q Q * . .             . . l z v v v G ] C . .   ",
"          . o % 4 . . .           . M 7.4.4 o o o . .                 . . , y u u u # . .             . . l v v v G ]  .C . .   ",
"            . . . . .             . N 3.,.2 X X X . . .               . . e u u u e @ . .             . o 5 z v b ' ' ' V . .   ",
"                                    $ % % u g g s X . .               . . d j j g @ . .                   o 4 v v b 1 $ $       ",
"                                      . . f ! Q g X . .               . X f Q Q g X .                     . 3 l l l $ . .       ",
"                                      . X f Q Q g X . .               . . f Q Q g X                         o o o o             ",
"                                      . X d Q Q g X . .               . X f Q Q g X                         . . . .             ",
"                                      . . f Q Q g X . .               . . f Q Q g X                           . . .             ",
"                                      . X d h h f X . .               . X s h g f .                                             ",
"                                      . . w u y w X . .               . . w u y e X                                             ",
"                                      . . 0 y y e X . .               . . w u y e .                                             ",
"                                  . . 0 y g d - #                         * r g f y * .                                         ",
"                                  . . d ! h f O .                         . 0 h g Q * . .                                       ",
"                                  . . d Q u e X .         . .             . > y u Q = . .                                       ",
"                                  . . s Q u e X .         . .         .   . : y u j * . .                                       ",
"                                - s d u s y r X .         . o         %   . : y y s s d r . .       .                           ",
"                              . : ! Q s y u y X .     . . . 5 n       J o   > u y r g Q d . .     . .     .                     ",
"                    . .     . . : Q Q j h h g X .   5 1 . . x J       J o   r Q f # - u d . .   . . .   . .                     ",
"                    . .   N m . - Q Q Q Q Q h + . 5 #.N   . 4 -.1     J $   Q h q . u ! d . .   o .     . o                     ",
"                  .   . . L $.. - Q Q Q Q Q j + . 5 4 o . . 3 [ %     @.G % g * . . s ! d . . 1 M .     o A                     ",
"                  .   . . 5 L 4 : Q Q j Q Q d + $ { 1 . 3 5 o C z .   @.] 1 s X 4 ; , e s . . 4 A .     o A                     ",
"                . 1 % . 3 . 4 4 # t s : j s X . % ' % . M N . l n . o [ ] % X 4 H ; @ X e . . M 1     . . c n o .               ",
"                . n 5 . 3 . 3 x 4 @ 0 # Q s o +.x 3     D N . % z . c ' V 3 o G O.o z 5 e . % F $   % l S $.5 .                 ",
"                  m +.4 3 % 3 l l X ; & d e o ,.n 1 . % H N . % V 4 A O.C l 3 ] -.$ [ Z 0 . 3 b o o 5 G ;.M . .                 ",
"                  n 4.,.n c 3 l v 1 5 5 + O n 4 % 3 o 4 C 1   $ F F M o.] l b >.X.5 =.A * . 1 3 $ v ] L 4 c                     ",
"                    #.5.M m o % K ,.3 +.o 5 -.% o 1 4 V 5       5 G 1 F C l b 2.} l *.Z . . % 1 S =.| 3 D x                     ",
"                    #.5.N Z % . S $.3 J o v &.% o l v V $       3 b % V v 5 b 5.} c >.A . . % l $.5.M 3 4.l                     ",
"                                                                                                                                "
};
